{
  "accessors": [
    {
      "bufferView": 2,
      "componentType": 5126,
      "count": 20,
      "max": [
        0.04815609008073807,
        -0.04084228351712227,
        0.16883942484855652
      ],
      "min": [
        -0.09507456421852112,
        -0.0415775328874588,
        0.02560875564813614
      ],
      "type": "VEC3"
    },
    {
      "bufferView": 2,
      "byteOffset": 240,
      "componentType": 5126,
      "count": 20,
      "max": [
        1.0,
        0.0,
        1.0
      ],
      "min": [
        -1.0,
        -0.9999992847442627,
        -1.0
      ],
      "type": "VEC3"
    },
    {
      "bufferView": 1,
      "componentType": 5126,
      "count": 20,
      "max": [
        1.0,
        1.0
      ],
      "min": [
        0.0,
        0.0
      ],
      "type": "VEC2"
    },
    {
      "bufferView": 0,
      "componentType": 5125,
      "count": 30,
      "type": "SCALAR"
    },
    {
      "bufferView": 2,
      "byteOffset": 480,
      "componentType": 5126,
      "count": 12709,
      "max": [
        0.24510981142520905,
        0.03742073476314545,
        0.2675420343875885
      ],
      "min": [
        -0.2273641675710678,
        -0.04555296152830124,
        -0.26578882336616516
      ],
      "type": "VEC3"
    },
    {
      "bufferView": 2,
      "byteOffset": 152988,
      "componentType": 5126,
      "count": 12709,
      "max": [
        0.9999915361404419,
        1.0,
        1.0
      ],
      "min": [
        -0.9997332096099854,
        -1.0,
        -1.0
      ],
      "type": "VEC3"
    },
    {
      "bufferView": 1,
      "byteOffset": 160,
      "componentType": 5126,
      "count": 12709,
      "max": [
        0.9786674976348877,
        0.9998310208320618
      ],
      "min": [
        0.00016900227637961507,
        0.00016900227637961507
      ],
      "type": "VEC2"
    },
    {
      "bufferView": 0,
      "byteOffset": 120,
      "componentType": 5125,
      "count": 73608,
      "type": "SCALAR"
    },
    {
      "bufferView": 2,
      "byteOffset": 305496,
      "componentType": 5126,
      "count": 24800,
      "max": [
        0.049425579607486725,
        0.020531142130494118,
        0.18620523810386658
      ],
      "min": [
        -0.22795666754245758,
        -0.042570970952510834,
        -0.22506721317768097
      ],
      "type": "VEC3"
    },
    {
      "bufferView": 2,
      "byteOffset": 603096,
      "componentType": 5126,
      "count": 24800,
      "max": [
        1.0,
        1.0,
        1.0
      ],
      "min": [
        -1.0,
        -1.0,
        -1.0
      ],
      "type": "VEC3"
    },
    {
      "bufferView": 1,
      "byteOffset": 101832,
      "componentType": 5126,
      "count": 24800,
      "max": [
        0.8511389493942261,
        0.9985728859901428
      ],
      "min": [
        0.0,
        0.0
      ],
      "type": "VEC2"
    },
    {
      "bufferView": 0,
      "byteOffset": 294552,
      "componentType": 5125,
      "count": 130650,
      "type": "SCALAR"
    },
    {
      "bufferView": 2,
      "byteOffset": 900696,
      "componentType": 5126,
      "count": 200,
      "max": [
        -0.18470488488674164,
        0.014588410034775734,
        0.28124359250068665
      ],
      "min": [
        -0.2220139354467392,
        -0.022720636799931526,
        0.18620523810386658
      ],
      "type": "VEC3"
    },
    {
      "bufferView": 2,
      "byteOffset": 903096,
      "componentType": 5126,
      "count": 200,
      "max": [
        0.7058849930763245,
        0.7058849930763245,
        1.0
      ],
      "min": [
        -0.7058849930763245,
        -0.7058849930763245,
        0.7083187103271484
      ],
      "type": "VEC3"
    },
    {
      "bufferView": 1,
      "byteOffset": 300232,
      "componentType": 5126,
      "count": 200,
      "max": [
        0.8842485547065735,
        0.823208749294281
      ],
      "min": [
        0.0005383927491493523,
        0.521665096282959
      ],
      "type": "VEC2"
    },
    {
      "bufferView": 0,
      "byteOffset": 817152,
      "componentType": 5125,
      "count": 672,
      "type": "SCALAR"
    },
    {
      "bufferView": 2,
      "byteOffset": 905496,
      "componentType": 5126,
      "count": 1183,
      "max": [
        0.19429601728916168,
        -0.04553813114762306,
        0.17298074066638947
      ],
      "min": [
        0.09829296171665192,
        -0.05147867649793625,
        0.01763378083705902
      ],
      "type": "VEC3"
    },
    {
      "bufferView": 2,
      "byteOffset": 919692,
      "componentType": 5126,
      "count": 1183,
      "max": [
        0.999972939491272,
        1.0,
        0.9990816116333008
      ],
      "min": [
        -0.999972939491272,
        -1.0,
        -0.9990816116333008
      ],
      "type": "VEC3"
    },
    {
      "bufferView": 1,
      "byteOffset": 301832,
      "componentType": 5126,
      "count": 1183,
      "max": [
        0.9313617944717407,
        0.9704323410987854
      ],
      "min": [
        0.0014793843729421496,
        0.0005383927491493523
      ],
      "type": "VEC2"
    },
    {
      "bufferView": 0,
      "byteOffset": 819840,
      "componentType": 5125,
      "count": 4608,
      "type": "SCALAR"
    },
    {
      "bufferView": 2,
      "byteOffset": 933888,
      "componentType": 5126,
      "count": 832,
      "max": [
        0.13002939522266388,
        -0.035063736140728,
        0.2431519478559494
      ],
      "min": [
        -0.15814536809921265,
        -0.041813671588897705,
        -0.041816629469394684
      ],
      "type": "VEC3"
    },
    {
      "bufferView": 2,
      "byteOffset": 943872,
      "componentType": 5126,
      "count": 832,
      "max": [
        0.9986706376075745,
        1.0,
        0.9919426441192627
      ],
      "min": [
        -0.987826406955719,
        -0.9999990463256836,
        -0.9667603969573975
      ],
      "type": "VEC3"
    },
    {
      "bufferView": 1,
      "byteOffset": 311296,
      "componentType": 5126,
      "count": 832,
      "max": [
        0.0,
        0.0
      ],
      "min": [
        0.0,
        0.0
      ],
      "type": "VEC2"
    },
    {
      "bufferView": 0,
      "byteOffset": 838272,
      "componentType": 5125,
      "count": 4980,
      "type": "SCALAR"
    },
    {
      "bufferView": 2,
      "byteOffset": 953856,
      "componentType": 5126,
      "count": 286,
      "max": [
        0.07571355998516083,
        -0.03133632615208626,
        -0.04202188551425934
      ],
      "min": [
        0.03966321051120758,
        -0.03704570233821869,
        -0.07807223498821259
      ],
      "type": "VEC3"
    },
    {
      "bufferView": 2,
      "byteOffset": 957288,
      "componentType": 5126,
      "count": 286,
      "max": [
        1.0,
        0.9981317520141602,
        1.0
      ],
      "min": [
        -1.0,
        -0.6857142448425293,
        -1.0
      ],
      "type": "VEC3"
    },
    {
      "bufferView": 1,
      "byteOffset": 317952,
      "componentType": 5126,
      "count": 286,
      "max": [
        0.9042270183563232,
        0.8224288821220398
      ],
      "min": [
        0.42494863271713257,
        0.42632734775543213
      ],
      "type": "VEC2"
    },
    {
      "bufferView": 0,
      "byteOffset": 858192,
      "componentType": 5125,
      "count": 1056,
      "type": "SCALAR"
    },
    {
      "bufferView": 2,
      "byteOffset": 960720,
      "componentType": 5126,
      "count": 14226,
      "max": [
        0.202260360121727,
        0.0372839979827404,
        0.2889484763145447
      ],
      "min": [
        -0.2225922793149948,
        -0.04541622847318649,
        -0.2993936240673065
      ],
      "type": "VEC3"
    },
    {
      "bufferView": 2,
      "byteOffset": 1131432,
      "componentType": 5126,
      "count": 14226,
      "max": [
        0.9999959468841553,
        1.0,
        1.0
      ],
      "min": [
        -0.9999916553497314,
        -1.0,
        -0.9999804496765137
      ],
      "type": "VEC3"
    },
    {
      "bufferView": 1,
      "byteOffset": 320240,
      "componentType": 5126,
      "count": 14226,
      "max": [
        1.0000001192092896,
        1.0005183219909668
      ],
      "min": [
        -0.000985355000011623,
        -0.04853847995400429
      ],
      "type": "VEC2"
    },
    {
      "bufferView": 0,
      "byteOffset": 862416,
      "componentType": 5125,
      "count": 73752,
      "type": "SCALAR"
    }
  ],
  "asset": {
    "extras": {
      "author": "kabukidanshii (https://sketchfab.com/kabukidanshii)",
      "license": "CC-BY-4.0 (http://creativecommons.org/licenses/by/4.0/)",
      "source": "https://sketchfab.com/3d-models/digimon-adventure-02-digivice-c0e1c9f657aa4f10a0fa34f11734a7ee",
      "title": "Digimon Adventure 02 Digivice"
    },
    "generator": "Sketchfab-12.67.0",
    "version": "2.0"
  },
  "bufferViews": [
    {
      "buffer": 0,
      "byteLength": 1157424,
      "name": "floatBufferViews",
      "target": 34963
    },
    {
      "buffer": 0,
      "byteLength": 434048,
      "byteOffset": 1157424,
      "byteStride": 8,
      "name": "floatBufferViews",
      "target": 34962
    },
    {
      "buffer": 0,
      "byteLength": 1302144,
      "byteOffset": 1591472,
      "byteStride": 12,
      "name": "floatBufferViews",
      "target": 34962
    }
  ],
  "buffers": [
    {
      "byteLength": 2893616,
      "uri": "scene.bin"
    }
  ],
  "images": [
    {
      "uri": "textures/BlueTexture_baseColor.png"
    }
  ],
  "materials": [
    {
      "doubleSided": true,
      "name": "Material.007",
      "pbrMetallicRoughness": {
        "baseColorFactor": [
          0.132864,
          0.132864,
          0.132864,
          1.0
        ],
        "metallicFactor": 0.0,
        "roughnessFactor": 0.19999999999999996
      }
    },
    {
      "doubleSided": true,
      "name": "BlueTexture",
      "pbrMetallicRoughness": {
        "baseColorTexture": {
          "index": 0
        },
        "metallicFactor": 0.0,
        "roughnessFactor": 0.904833235
      }
    },
    {
      "doubleSided": true,
      "name": "Material.004",
      "pbrMetallicRoughness": {
        "baseColorFactor": [
          0.365165,
          0.365165,
          0.365165,
          1.0
        ],
        "metallicFactor": 0.0,
        "roughnessFactor": 0.9183466237
      }
    },
    {
      "doubleSided": true,
      "name": "Material.003",
      "pbrMetallicRoughness": {
        "baseColorFactor": [
          0.0,
          0.0,
          0.0,
          1.0
        ],
        "metallicFactor": 0.0
      }
    },
    {
      "doubleSided": true,
      "name": "Material.006",
      "pbrMetallicRoughness": {
        "baseColorFactor": [
          0.0,
          0.0,
          0.0,
          1.0
        ],
        "metallicFactor": 0.0
      }
    },
    {
      "doubleSided": true,
      "name": "Material.005",
      "pbrMetallicRoughness": {
        "baseColorFactor": [
          0.0,
          0.0,
          0.0,
          1.0
        ],
        "metallicFactor": 0.0,
        "roughnessFactor": 0.19999999999999996
      }
    },
    {
      "doubleSided": true,
      "name": "Material.002",
      "pbrMetallicRoughness": {
        "baseColorFactor": [
          0.8,
          0.0609049,
          0.0092079,
          1.0
        ],
        "metallicFactor": 0.0,
        "roughnessFactor": 0.95208017
      }
    },
    {
      "doubleSided": true,
      "name": "Material",
      "pbrMetallicRoughness": {
        "baseColorFactor": [
          0.8,
          0.8,
          0.8,
          1.0
        ],
        "metallicFactor": 0.0,
        "roughnessFactor": 0.8211145618
      }
    }
  ],
  "meshes": [
    {
      "name": "Digivice_Material.007_0",
      "primitives": [
        {
          "attributes": {
            "NORMAL": 1,
            "POSITION": 0,
            "TEXCOORD_0": 2
          },
          "indices": 3,
          "material": 0,
          "mode": 4
        }
      ]
    },
    {
      "name": "Digivice_BlueTexture_0",
      "primitives": [
        {
          "attributes": {
            "NORMAL": 5,
            "POSITION": 4,
            "TEXCOORD_0": 6
          },
          "indices": 7,
          "material": 1,
          "mode": 4
        }
      ]
    },
    {
      "name": "Digivice_Material.004_0",
      "primitives": [
        {
          "attributes": {
            "NORMAL": 9,
            "POSITION": 8,
            "TEXCOORD_0": 10
          },
          "indices": 11,
          "material": 2,
          "mode": 4
        }
      ]
    },
    {
      "name": "Digivice_Material.003_0",
      "primitives": [
        {
          "attributes": {
            "NORMAL": 13,
            "POSITION": 12,
            "TEXCOORD_0": 14
          },
          "indices": 15,
          "material": 3,
          "mode": 4
        }
      ]
    },
    {
      "name": "Digivice_Material.006_0",
      "primitives": [
        {
          "attributes": {
            "NORMAL": 17,
            "POSITION": 16,
            "TEXCOORD_0": 18
          },
          "indices": 19,
          "material": 4,
          "mode": 4
        }
      ]
    },
    {
      "name": "Digivice_Material.005_0",
      "primitives": [
        {
          "attributes": {
            "NORMAL": 21,
            "POSITION": 20,
            "TEXCOORD_0": 22
          },
          "indices": 23,
          "material": 5,
          "mode": 4
        }
      ]
    },
    {
      "name": "Digivice_Material.002_0",
      "primitives": [
        {
          "attributes": {
            "NORMAL": 25,
            "POSITION": 24,
            "TEXCOORD_0": 26
          },
          "indices": 27,
          "material": 6,
          "mode": 4
        }
      ]
    },
    {
      "name": "Digivice_Material_0",
      "primitives": [
        {
          "attributes": {
            "NORMAL": 29,
            "POSITION": 28,
            "TEXCOORD_0": 30
          },
          "indices": 31,
          "material": 7,
          "mode": 4
        }
      ]
    }
  ],
  "nodes": [
    {
      "children": [
        1
      ],
      "matrix": [
        1.0,
        0.0,
        0.0,
        0.0,
        0.0,
        2.220446049250313e-16,
        -1.0,
        0.0,
        0.0,
        1.0,
        2.220446049250313e-16,
        0.0,
        0.0,
        0.0,
        0.0,
        1.0
      ],
      "name": "Sketchfab_model"
    },
    {
      "children": [
        2
      ],
      "matrix": [
        1.0,
        0.0,
        0.0,
        0.0,
        0.0,
        0.0,
        1.0,
        0.0,
        0.0,
        -1.0,
        0.0,
        0.0,
        0.0,
        0.0,
        0.0,
        1.0
      ],
      "name": "Digivice.fbx"
    },
    {
      "children": [
        3
      ],
      "name": "RootNode"
    },
    {
      "children": [
        4,
        5,
        6,
        7,
        8,
        9,
        10,
        11
      ],
      "matrix": [
        -99.9999999999996,
        -8.742277980456488e-06,
        0.0,
        0.0,
        -1.4242978711041864e-12,
        1.6292067994694293e-05,
        99.99999999999865,
        0.0,
        -8.74227798045637e-06,
        99.99999999999828,
        -1.6292067983592062e-05,
        0.0,
        0.0,
        0.0,
        0.4066113829612732,
        1.0
      ],
      "name": "Digivice"
    },
    {
      "mesh": 0,
      "name": "Digivice_Material.007_0"
    },
    {
      "mesh": 1,
      "name": "Digivice_BlueTexture_0"
    },
    {
      "mesh": 2,
      "name": "Digivice_Material.004_0"
    },
    {
      "mesh": 3,
      "name": "Digivice_Material.003_0"
    },
    {
      "mesh": 4,
      "name": "Digivice_Material.006_0"
    },
    {
      "mesh": 5,
      "name": "Digivice_Material.005_0"
    },
    {
      "mesh": 6,
      "name": "Digivice_Material.002_0"
    },
    {
      "mesh": 7,
      "name": "Digivice_Material_0"
    }
  ],
  "samplers": [
    {
      "magFilter": 9729,
      "minFilter": 9987,
      "wrapS": 10497,
      "wrapT": 10497
    }
  ],
  "scene": 0,
  "scenes": [
    {
      "name": "Sketchfab_Scene",
      "nodes": [
        0
      ]
    }
  ],
  "textures": [
    {
      "sampler": 0,
      "source": 0
    }
  ]
}
